# xmcd CD database file
#
# Track frame offsets:
#	150
#	24510
#	50868
#	77730
#	101412
#	125685
#	159569
#	191395
#	214860
#	239037
#	264714
#	287172
#	292021
#	302713
#	329583
#
# Disc length: 4742 seconds
#
# Revision: 0
# Processed by: cddbd v1.4PL0 Copyright (c) Steve Scherf et al.
# Submitted via: CDex 1.51
#
DISCID=ea12840f
DTITLE=Fatboy Slim - The Best
DYEAR=2003
DGENRE=New Age
TTITLE0=Praise You
TTITLE1=Everybody needs a 303
TTITLE2=Right here, right now
TTITLE3=Going out of my head
TTITLE4=Gangster Tripping
TTITLE5=Santa Crus
TTITLE6=The Rockafella Skank
TTITLE7=Sho Nuff
TTITLE8=Love Island
TTITLE9=Don't forget Your teeth
TTITLE10=Punk to Funk
TTITLE11=Renegate Master (Fragment)
TTITLE12=Peanut Butter and Jelly (Beastie Boys Remix)
TTITLE13=The Rockafella Skank Mulder's Urban (Takeover Remix)
TTITLE14=The World's made up of this and that
EXTD=YEAR: 2003
EXTT0=
EXTT1=
EXTT2=
EXTT3=
EXTT4=
EXTT5=
EXTT6=
EXTT7=
EXTT8=
EXTT9=
EXTT10=
EXTT11=
EXTT12=
EXTT13=
EXTT14=
PLAYORDER=
